<svg width="340" height="340" viewBox="0 0 340 340" fill="none" xmlns="http://www.w3.org/2000/svg">
<g filter="url(#filter0_d_686_3)">
<circle cx="170" cy="166" r="166" fill="#0DA82F"/>
<circle cx="170" cy="166" r="165.5" stroke="white"/>
</g>
<path d="M124.375 199.375V214H75.9375V199.375H124.375ZM82.0625 123V214H63.3125V123H82.0625ZM118.062 160.062V174.312H75.9375V160.062H118.062ZM124.312 123V137.688H75.9375V123H124.312ZM201.125 199.375V214H136.625V199.375H201.125ZM200.188 133.438L144.938 214H131.75V203.25L187.438 123H200.188V133.438ZM193.75 123V137.688H131.812V123H193.75ZM250.938 138.562L226.188 214H206.25L240.062 123H252.75L250.938 138.562ZM271.5 214L246.688 138.562L244.688 123H257.5L291.5 214H271.5ZM270.375 180.125V194.812H222.312V180.125H270.375Z" fill="white"/>
<path d="M113.154 98.1328L115.694 89.2031H116.925L116.213 92.6748L113.479 102H112.258L113.154 98.1328ZM110.526 89.2031L112.548 97.957L113.154 102H111.941L108.839 89.2031H110.526ZM120.212 97.9482L122.189 89.2031H123.886L120.792 102H119.579L120.212 97.9482ZM117.109 89.2031L119.579 98.1328L120.476 102H119.254L116.617 92.6748L115.896 89.2031H117.109ZM133.896 100.62V102H127.12V100.62H133.896ZM127.463 89.2031V102H125.767V89.2031H127.463ZM133 94.7051V96.085H127.12V94.7051H133ZM133.809 89.2031V90.5918H127.12V89.2031H133.809ZM143.758 100.62V102H137.359V100.62H143.758ZM137.693 89.2031V102H135.997V89.2031H137.693ZM152.846 97.9307H154.533C154.445 98.7393 154.214 99.4629 153.839 100.102C153.464 100.74 152.934 101.247 152.248 101.622C151.562 101.991 150.707 102.176 149.682 102.176C148.932 102.176 148.249 102.035 147.634 101.754C147.024 101.473 146.5 101.074 146.061 100.559C145.621 100.037 145.281 99.4131 145.041 98.6865C144.807 97.9541 144.689 97.1396 144.689 96.2432V94.9688C144.689 94.0723 144.807 93.2607 145.041 92.5342C145.281 91.8018 145.624 91.1748 146.069 90.6533C146.521 90.1318 147.062 89.7305 147.695 89.4492C148.328 89.168 149.04 89.0273 149.831 89.0273C150.798 89.0273 151.615 89.209 152.283 89.5723C152.951 89.9355 153.47 90.4395 153.839 91.084C154.214 91.7227 154.445 92.4639 154.533 93.3076H152.846C152.764 92.71 152.611 92.1973 152.389 91.7695C152.166 91.3359 151.85 91.002 151.439 90.7676C151.029 90.5332 150.493 90.416 149.831 90.416C149.263 90.416 148.762 90.5244 148.328 90.7412C147.9 90.958 147.54 91.2656 147.247 91.6641C146.96 92.0625 146.743 92.54 146.597 93.0967C146.45 93.6533 146.377 94.2715 146.377 94.9512V96.2432C146.377 96.8701 146.441 97.459 146.57 98.0098C146.705 98.5605 146.907 99.0439 147.177 99.46C147.446 99.876 147.789 100.204 148.205 100.444C148.621 100.679 149.113 100.796 149.682 100.796C150.402 100.796 150.977 100.682 151.404 100.453C151.832 100.225 152.154 99.8965 152.371 99.4688C152.594 99.041 152.752 98.5283 152.846 97.9307ZM166.697 95.1973V96.0059C166.697 96.9668 166.577 97.8281 166.337 98.5898C166.097 99.3516 165.751 99.999 165.3 100.532C164.849 101.065 164.307 101.473 163.674 101.754C163.047 102.035 162.344 102.176 161.564 102.176C160.809 102.176 160.114 102.035 159.481 101.754C158.854 101.473 158.31 101.065 157.847 100.532C157.39 99.999 157.035 99.3516 156.783 98.5898C156.531 97.8281 156.405 96.9668 156.405 96.0059V95.1973C156.405 94.2363 156.528 93.3779 156.774 92.6221C157.026 91.8604 157.381 91.2129 157.838 90.6797C158.295 90.1406 158.837 89.7305 159.464 89.4492C160.097 89.168 160.791 89.0273 161.547 89.0273C162.326 89.0273 163.029 89.168 163.656 89.4492C164.289 89.7305 164.831 90.1406 165.282 90.6797C165.739 91.2129 166.088 91.8604 166.328 92.6221C166.574 93.3779 166.697 94.2363 166.697 95.1973ZM165.019 96.0059V95.1797C165.019 94.418 164.939 93.7441 164.781 93.1582C164.629 92.5723 164.403 92.0801 164.104 91.6816C163.806 91.2832 163.439 90.9814 163.006 90.7764C162.578 90.5713 162.092 90.4688 161.547 90.4688C161.02 90.4688 160.542 90.5713 160.114 90.7764C159.692 90.9814 159.329 91.2832 159.024 91.6816C158.726 92.0801 158.494 92.5723 158.33 93.1582C158.166 93.7441 158.084 94.418 158.084 95.1797V96.0059C158.084 96.7734 158.166 97.4531 158.33 98.0449C158.494 98.6309 158.729 99.126 159.033 99.5303C159.344 99.9287 159.71 100.23 160.132 100.436C160.56 100.641 161.037 100.743 161.564 100.743C162.115 100.743 162.604 100.641 163.032 100.436C163.46 100.23 163.82 99.9287 164.113 99.5303C164.412 99.126 164.638 98.6309 164.79 98.0449C164.942 97.4531 165.019 96.7734 165.019 96.0059ZM169.773 89.2031H171.417L175.609 99.6357L179.793 89.2031H181.445L176.242 102H174.959L169.773 89.2031ZM169.237 89.2031H170.688L170.925 97.0078V102H169.237V89.2031ZM180.522 89.2031H181.973V102H180.285V97.0078L180.522 89.2031ZM193.082 100.62V102H186.306V100.62H193.082ZM186.648 89.2031V102H184.952V89.2031H186.648ZM192.186 94.7051V96.085H186.306V94.7051H192.186ZM192.994 89.2031V90.5918H186.306V89.2031H192.994ZM204.024 89.2031V102H202.354V89.2031H204.024ZM208.138 89.2031V90.5918H198.25V89.2031H208.138ZM219.643 95.1973V96.0059C219.643 96.9668 219.522 97.8281 219.282 98.5898C219.042 99.3516 218.696 99.999 218.245 100.532C217.794 101.065 217.252 101.473 216.619 101.754C215.992 102.035 215.289 102.176 214.51 102.176C213.754 102.176 213.06 102.035 212.427 101.754C211.8 101.473 211.255 101.065 210.792 100.532C210.335 99.999 209.98 99.3516 209.729 98.5898C209.477 97.8281 209.351 96.9668 209.351 96.0059V95.1973C209.351 94.2363 209.474 93.3779 209.72 92.6221C209.972 91.8604 210.326 91.2129 210.783 90.6797C211.24 90.1406 211.782 89.7305 212.409 89.4492C213.042 89.168 213.736 89.0273 214.492 89.0273C215.271 89.0273 215.975 89.168 216.602 89.4492C217.234 89.7305 217.776 90.1406 218.228 90.6797C218.685 91.2129 219.033 91.8604 219.273 92.6221C219.52 93.3779 219.643 94.2363 219.643 95.1973ZM217.964 96.0059V95.1797C217.964 94.418 217.885 93.7441 217.727 93.1582C217.574 92.5723 217.349 92.0801 217.05 91.6816C216.751 91.2832 216.385 90.9814 215.951 90.7764C215.523 90.5713 215.037 90.4688 214.492 90.4688C213.965 90.4688 213.487 90.5713 213.06 90.7764C212.638 90.9814 212.274 91.2832 211.97 91.6816C211.671 92.0801 211.439 92.5723 211.275 93.1582C211.111 93.7441 211.029 94.418 211.029 95.1797V96.0059C211.029 96.7734 211.111 97.4531 211.275 98.0449C211.439 98.6309 211.674 99.126 211.979 99.5303C212.289 99.9287 212.655 100.23 213.077 100.436C213.505 100.641 213.982 100.743 214.51 100.743C215.061 100.743 215.55 100.641 215.978 100.436C216.405 100.23 216.766 99.9287 217.059 99.5303C217.357 99.126 217.583 98.6309 217.735 98.0449C217.888 97.4531 217.964 96.7734 217.964 96.0059Z" fill="white"/>
<path d="M85.4438 236.664C85.4438 236.448 85.41 236.258 85.3423 236.093C85.2788 235.924 85.1646 235.771 84.9995 235.636C84.8387 235.5 84.6144 235.371 84.3267 235.249C84.0431 235.126 83.6834 235.001 83.2476 234.874C82.7905 234.739 82.3779 234.588 82.0098 234.423C81.6416 234.254 81.3263 234.062 81.064 233.846C80.8016 233.63 80.6006 233.382 80.4609 233.103C80.3213 232.824 80.2515 232.504 80.2515 232.145C80.2515 231.785 80.3255 231.453 80.4736 231.148C80.6217 230.843 80.8333 230.579 81.1084 230.354C81.3877 230.126 81.7199 229.948 82.105 229.821C82.4901 229.694 82.9196 229.631 83.3936 229.631C84.0876 229.631 84.6758 229.764 85.1582 230.031C85.6449 230.293 86.0151 230.638 86.269 231.065C86.5229 231.489 86.6499 231.941 86.6499 232.424H85.4312C85.4312 232.077 85.3571 231.77 85.209 231.503C85.0609 231.233 84.8366 231.021 84.5361 230.869C84.2357 230.712 83.8548 230.634 83.3936 230.634C82.9577 230.634 82.598 230.699 82.3145 230.831C82.0309 230.962 81.8193 231.139 81.6797 231.364C81.5443 231.588 81.4766 231.844 81.4766 232.132C81.4766 232.326 81.5168 232.504 81.5972 232.665C81.6818 232.822 81.8109 232.968 81.9844 233.103C82.1621 233.238 82.3864 233.363 82.6572 233.478C82.9323 233.592 83.2603 233.702 83.6411 233.808C84.1659 233.956 84.6187 234.121 84.9995 234.303C85.3804 234.485 85.6935 234.69 85.939 234.918C86.1886 235.143 86.3727 235.399 86.4912 235.687C86.6139 235.97 86.6753 236.292 86.6753 236.651C86.6753 237.028 86.5991 237.369 86.4468 237.673C86.2944 237.978 86.0765 238.238 85.793 238.454C85.5094 238.67 85.1688 238.837 84.771 238.956C84.3774 239.07 83.9373 239.127 83.4507 239.127C83.0233 239.127 82.6022 239.068 82.1875 238.949C81.777 238.831 81.4025 238.653 81.064 238.416C80.7297 238.179 80.4609 237.887 80.2578 237.54C80.0589 237.189 79.9595 236.783 79.9595 236.321H81.1782C81.1782 236.639 81.2396 236.912 81.3623 237.14C81.485 237.364 81.6522 237.551 81.8638 237.699C82.0796 237.847 82.3229 237.957 82.5938 238.029C82.8688 238.097 83.1545 238.13 83.4507 238.13C83.8781 238.13 84.2399 238.071 84.5361 237.953C84.8324 237.834 85.0566 237.665 85.209 237.445C85.3656 237.225 85.4438 236.965 85.4438 236.664ZM94.1084 238.003V239H89.2144V238.003H94.1084ZM89.4619 229.758V239H88.2368V229.758H89.4619ZM93.4609 233.731V234.728H89.2144V233.731H93.4609ZM94.0449 229.758V230.761H89.2144V229.758H94.0449ZM101.205 236.061H102.424C102.36 236.645 102.193 237.168 101.922 237.629C101.652 238.09 101.269 238.456 100.773 238.727C100.278 238.994 99.6605 239.127 98.9199 239.127C98.3783 239.127 97.8853 239.025 97.4409 238.822C97.0008 238.619 96.6221 238.331 96.3047 237.959C95.9873 237.582 95.7419 237.132 95.5684 236.607C95.3991 236.078 95.3145 235.49 95.3145 234.842V233.922C95.3145 233.274 95.3991 232.688 95.5684 232.164C95.7419 231.635 95.9894 231.182 96.311 230.805C96.6369 230.429 97.0283 230.139 97.4854 229.936C97.9424 229.732 98.4565 229.631 99.0278 229.631C99.7261 229.631 100.316 229.762 100.799 230.024C101.281 230.287 101.656 230.651 101.922 231.116C102.193 231.577 102.36 232.113 102.424 232.722H101.205C101.146 232.291 101.036 231.92 100.875 231.611C100.714 231.298 100.486 231.057 100.189 230.888C99.8932 230.718 99.506 230.634 99.0278 230.634C98.6174 230.634 98.2555 230.712 97.9424 230.869C97.6335 231.025 97.3732 231.247 97.1616 231.535C96.9543 231.823 96.7977 232.168 96.6919 232.57C96.5861 232.972 96.5332 233.418 96.5332 233.909V234.842C96.5332 235.295 96.5798 235.72 96.6729 236.118C96.7702 236.516 96.9162 236.865 97.1108 237.166C97.3055 237.466 97.5531 237.703 97.8535 237.876C98.154 238.046 98.5094 238.13 98.9199 238.13C99.4404 238.13 99.8551 238.048 100.164 237.883C100.473 237.718 100.706 237.481 100.862 237.172C101.023 236.863 101.137 236.493 101.205 236.061ZM109.381 229.758H110.6V236.01C110.6 236.704 110.445 237.282 110.136 237.743C109.827 238.204 109.417 238.551 108.905 238.784C108.397 239.013 107.845 239.127 107.248 239.127C106.622 239.127 106.055 239.013 105.547 238.784C105.043 238.551 104.643 238.204 104.347 237.743C104.055 237.282 103.909 236.704 103.909 236.01V229.758H105.122V236.01C105.122 236.493 105.21 236.89 105.388 237.204C105.566 237.517 105.813 237.75 106.131 237.902C106.452 238.054 106.825 238.13 107.248 238.13C107.675 238.13 108.048 238.054 108.365 237.902C108.687 237.75 108.937 237.517 109.114 237.204C109.292 236.89 109.381 236.493 109.381 236.01V229.758ZM112.523 229.758H115.583C116.277 229.758 116.863 229.864 117.341 230.075C117.823 230.287 118.189 230.6 118.439 231.015C118.693 231.425 118.82 231.931 118.82 232.532C118.82 232.955 118.733 233.342 118.56 233.693C118.39 234.04 118.145 234.337 117.823 234.582C117.506 234.823 117.125 235.003 116.681 235.122L116.338 235.255H113.462L113.45 234.258H115.621C116.061 234.258 116.427 234.182 116.719 234.03C117.011 233.873 117.231 233.664 117.379 233.401C117.527 233.139 117.601 232.849 117.601 232.532C117.601 232.176 117.531 231.865 117.392 231.599C117.252 231.332 117.032 231.127 116.731 230.983C116.435 230.835 116.052 230.761 115.583 230.761H113.748V239H112.523V229.758ZM117.925 239L115.678 234.811L116.954 234.804L119.232 238.924V239H117.925ZM126.405 238.003V239H121.511V238.003H126.405ZM121.759 229.758V239H120.534V229.758H121.759ZM125.758 233.731V234.728H121.511V233.731H125.758ZM126.342 229.758V230.761H121.511V229.758H126.342ZM131.572 229.758L133.972 234.398L136.377 229.758H137.768L134.581 235.547V239H133.356V235.547L130.169 229.758H131.572ZM145.88 234.087V234.671C145.88 235.365 145.793 235.987 145.62 236.537C145.446 237.087 145.196 237.555 144.871 237.94C144.545 238.325 144.153 238.619 143.696 238.822C143.243 239.025 142.736 239.127 142.173 239.127C141.627 239.127 141.125 239.025 140.668 238.822C140.216 238.619 139.822 238.325 139.488 237.94C139.158 237.555 138.902 237.087 138.72 236.537C138.538 235.987 138.447 235.365 138.447 234.671V234.087C138.447 233.393 138.536 232.773 138.713 232.227C138.895 231.677 139.151 231.209 139.481 230.824C139.812 230.435 140.203 230.139 140.656 229.936C141.113 229.732 141.614 229.631 142.16 229.631C142.723 229.631 143.231 229.732 143.684 229.936C144.141 230.139 144.532 230.435 144.858 230.824C145.188 231.209 145.44 231.677 145.613 232.227C145.791 232.773 145.88 233.393 145.88 234.087ZM144.667 234.671V234.074C144.667 233.524 144.61 233.037 144.496 232.614C144.386 232.191 144.223 231.836 144.007 231.548C143.792 231.26 143.527 231.042 143.214 230.894C142.905 230.746 142.554 230.672 142.16 230.672C141.779 230.672 141.434 230.746 141.125 230.894C140.821 231.042 140.558 231.26 140.338 231.548C140.123 231.836 139.955 232.191 139.837 232.614C139.718 233.037 139.659 233.524 139.659 234.074V234.671C139.659 235.225 139.718 235.716 139.837 236.144C139.955 236.567 140.125 236.924 140.345 237.216C140.569 237.504 140.833 237.722 141.138 237.87C141.447 238.018 141.792 238.092 142.173 238.092C142.571 238.092 142.924 238.018 143.233 237.87C143.542 237.722 143.802 237.504 144.014 237.216C144.229 236.924 144.392 236.567 144.502 236.144C144.612 235.716 144.667 235.225 144.667 234.671ZM153.002 229.758H154.221V236.01C154.221 236.704 154.066 237.282 153.757 237.743C153.448 238.204 153.038 238.551 152.526 238.784C152.018 239.013 151.466 239.127 150.869 239.127C150.243 239.127 149.676 239.013 149.168 238.784C148.664 238.551 148.264 238.204 147.968 237.743C147.676 237.282 147.53 236.704 147.53 236.01V229.758H148.743V236.01C148.743 236.493 148.832 236.89 149.009 237.204C149.187 237.517 149.435 237.75 149.752 237.902C150.074 238.054 150.446 238.13 150.869 238.13C151.297 238.13 151.669 238.054 151.986 237.902C152.308 237.75 152.558 237.517 152.735 237.204C152.913 236.89 153.002 236.493 153.002 236.01V229.758ZM156.144 229.758H159.204C159.898 229.758 160.484 229.864 160.962 230.075C161.444 230.287 161.81 230.6 162.06 231.015C162.314 231.425 162.441 231.931 162.441 232.532C162.441 232.955 162.354 233.342 162.181 233.693C162.011 234.04 161.766 234.337 161.444 234.582C161.127 234.823 160.746 235.003 160.302 235.122L159.959 235.255H157.083L157.071 234.258H159.242C159.682 234.258 160.048 234.182 160.34 234.03C160.632 233.873 160.852 233.664 161 233.401C161.148 233.139 161.222 232.849 161.222 232.532C161.222 232.176 161.152 231.865 161.013 231.599C160.873 231.332 160.653 231.127 160.353 230.983C160.056 230.835 159.673 230.761 159.204 230.761H157.369V239H156.144V229.758ZM161.546 239L159.299 234.811L160.575 234.804L162.854 238.924V239H161.546ZM170.674 234.677H168.332L168.319 233.693H170.445C170.797 233.693 171.103 233.634 171.366 233.516C171.628 233.397 171.831 233.228 171.975 233.008C172.123 232.784 172.197 232.517 172.197 232.208C172.197 231.869 172.132 231.594 172 231.383C171.874 231.167 171.677 231.01 171.41 230.913C171.148 230.812 170.813 230.761 170.407 230.761H168.604V239H167.379V229.758H170.407C170.881 229.758 171.304 229.806 171.677 229.904C172.049 229.997 172.364 230.145 172.623 230.348C172.885 230.547 173.084 230.801 173.219 231.11C173.355 231.419 173.422 231.789 173.422 232.221C173.422 232.602 173.325 232.946 173.13 233.255C172.936 233.56 172.665 233.81 172.318 234.004C171.975 234.199 171.573 234.324 171.112 234.379L170.674 234.677ZM170.617 239H167.849L168.541 238.003H170.617C171.006 238.003 171.336 237.936 171.607 237.8C171.882 237.665 172.091 237.474 172.235 237.229C172.379 236.979 172.451 236.685 172.451 236.347C172.451 236.004 172.39 235.708 172.267 235.458C172.144 235.208 171.952 235.016 171.689 234.88C171.427 234.745 171.089 234.677 170.674 234.677H168.928L168.941 233.693H171.328L171.588 234.049C172.032 234.087 172.409 234.214 172.718 234.43C173.027 234.641 173.262 234.912 173.422 235.242C173.587 235.572 173.67 235.936 173.67 236.334C173.67 236.91 173.543 237.396 173.289 237.794C173.039 238.188 172.686 238.488 172.229 238.695C171.772 238.898 171.235 239 170.617 239ZM180.767 229.758H181.985V236.01C181.985 236.704 181.831 237.282 181.522 237.743C181.213 238.204 180.803 238.551 180.291 238.784C179.783 239.013 179.23 239.127 178.634 239.127C178.007 239.127 177.44 239.013 176.933 238.784C176.429 238.551 176.029 238.204 175.733 237.743C175.441 237.282 175.295 236.704 175.295 236.01V229.758H176.507V236.01C176.507 236.493 176.596 236.89 176.774 237.204C176.952 237.517 177.199 237.75 177.517 237.902C177.838 238.054 178.211 238.13 178.634 238.13C179.061 238.13 179.434 238.054 179.751 237.902C180.073 237.75 180.322 237.517 180.5 237.204C180.678 236.89 180.767 236.493 180.767 236.01V229.758ZM188.834 236.664C188.834 236.448 188.801 236.258 188.733 236.093C188.669 235.924 188.555 235.771 188.39 235.636C188.229 235.5 188.005 235.371 187.717 235.249C187.434 235.126 187.074 235.001 186.638 234.874C186.181 234.739 185.769 234.588 185.4 234.423C185.032 234.254 184.717 234.062 184.455 233.846C184.192 233.63 183.991 233.382 183.852 233.103C183.712 232.824 183.642 232.504 183.642 232.145C183.642 231.785 183.716 231.453 183.864 231.148C184.012 230.843 184.224 230.579 184.499 230.354C184.778 230.126 185.111 229.948 185.496 229.821C185.881 229.694 186.31 229.631 186.784 229.631C187.478 229.631 188.066 229.764 188.549 230.031C189.035 230.293 189.406 230.638 189.66 231.065C189.914 231.489 190.041 231.941 190.041 232.424H188.822C188.822 232.077 188.748 231.77 188.6 231.503C188.451 231.233 188.227 231.021 187.927 230.869C187.626 230.712 187.245 230.634 186.784 230.634C186.348 230.634 185.989 230.699 185.705 230.831C185.422 230.962 185.21 231.139 185.07 231.364C184.935 231.588 184.867 231.844 184.867 232.132C184.867 232.326 184.907 232.504 184.988 232.665C185.072 232.822 185.201 232.968 185.375 233.103C185.553 233.238 185.777 233.363 186.048 233.478C186.323 233.592 186.651 233.702 187.032 233.808C187.556 233.956 188.009 234.121 188.39 234.303C188.771 234.485 189.084 234.69 189.33 234.918C189.579 235.143 189.763 235.399 189.882 235.687C190.005 235.97 190.066 236.292 190.066 236.651C190.066 237.028 189.99 237.369 189.837 237.673C189.685 237.978 189.467 238.238 189.184 238.454C188.9 238.67 188.559 238.837 188.162 238.956C187.768 239.07 187.328 239.127 186.841 239.127C186.414 239.127 185.993 239.068 185.578 238.949C185.168 238.831 184.793 238.653 184.455 238.416C184.12 238.179 183.852 237.887 183.648 237.54C183.45 237.189 183.35 236.783 183.35 236.321H184.569C184.569 236.639 184.63 236.912 184.753 237.14C184.876 237.364 185.043 237.551 185.254 237.699C185.47 237.847 185.714 237.957 185.984 238.029C186.259 238.097 186.545 238.13 186.841 238.13C187.269 238.13 187.631 238.071 187.927 237.953C188.223 237.834 188.447 237.665 188.6 237.445C188.756 237.225 188.834 236.965 188.834 236.664ZM192.941 229.758V239H191.716V229.758H192.941ZM202.279 229.758V239H201.047L196.395 231.872V239H195.169V229.758H196.395L201.066 236.905V229.758H202.279ZM210.321 238.003V239H205.427V238.003H210.321ZM205.675 229.758V239H204.45V229.758H205.675ZM209.674 233.731V234.728H205.427V233.731H209.674ZM210.258 229.758V230.761H205.427V229.758H210.258ZM216.764 236.664C216.764 236.448 216.73 236.258 216.663 236.093C216.599 235.924 216.485 235.771 216.32 235.636C216.159 235.5 215.935 235.371 215.647 235.249C215.363 235.126 215.004 235.001 214.568 234.874C214.111 234.739 213.698 234.588 213.33 234.423C212.962 234.254 212.647 234.062 212.384 233.846C212.122 233.63 211.921 233.382 211.781 233.103C211.642 232.824 211.572 232.504 211.572 232.145C211.572 231.785 211.646 231.453 211.794 231.148C211.942 230.843 212.154 230.579 212.429 230.354C212.708 230.126 213.04 229.948 213.425 229.821C213.81 229.694 214.24 229.631 214.714 229.631C215.408 229.631 215.996 229.764 216.479 230.031C216.965 230.293 217.335 230.638 217.589 231.065C217.843 231.489 217.97 231.941 217.97 232.424H216.751C216.751 232.077 216.677 231.77 216.529 231.503C216.381 231.233 216.157 231.021 215.856 230.869C215.556 230.712 215.175 230.634 214.714 230.634C214.278 230.634 213.918 230.699 213.635 230.831C213.351 230.962 213.14 231.139 213 231.364C212.865 231.588 212.797 231.844 212.797 232.132C212.797 232.326 212.837 232.504 212.917 232.665C213.002 232.822 213.131 232.968 213.305 233.103C213.482 233.238 213.707 233.363 213.978 233.478C214.253 233.592 214.581 233.702 214.961 233.808C215.486 233.956 215.939 234.121 216.32 234.303C216.701 234.485 217.014 234.69 217.259 234.918C217.509 235.143 217.693 235.399 217.812 235.687C217.934 235.97 217.996 236.292 217.996 236.651C217.996 237.028 217.919 237.369 217.767 237.673C217.615 237.978 217.397 238.238 217.113 238.454C216.83 238.67 216.489 238.837 216.091 238.956C215.698 239.07 215.258 239.127 214.771 239.127C214.344 239.127 213.923 239.068 213.508 238.949C213.097 238.831 212.723 238.653 212.384 238.416C212.05 238.179 211.781 237.887 211.578 237.54C211.379 237.189 211.28 236.783 211.28 236.321H212.499C212.499 236.639 212.56 236.912 212.683 237.14C212.805 237.364 212.972 237.551 213.184 237.699C213.4 237.847 213.643 237.957 213.914 238.029C214.189 238.097 214.475 238.13 214.771 238.13C215.198 238.13 215.56 238.071 215.856 237.953C216.153 237.834 216.377 237.665 216.529 237.445C216.686 237.225 216.764 236.965 216.764 236.664ZM224.483 236.664C224.483 236.448 224.449 236.258 224.381 236.093C224.318 235.924 224.204 235.771 224.039 235.636C223.878 235.5 223.653 235.371 223.366 235.249C223.082 235.126 222.722 235.001 222.287 234.874C221.83 234.739 221.417 234.588 221.049 234.423C220.681 234.254 220.365 234.062 220.103 233.846C219.841 233.63 219.64 233.382 219.5 233.103C219.36 232.824 219.291 232.504 219.291 232.145C219.291 231.785 219.365 231.453 219.513 231.148C219.661 230.843 219.872 230.579 220.147 230.354C220.427 230.126 220.759 229.948 221.144 229.821C221.529 229.694 221.959 229.631 222.433 229.631C223.127 229.631 223.715 229.764 224.197 230.031C224.684 230.293 225.054 230.638 225.308 231.065C225.562 231.489 225.689 231.941 225.689 232.424H224.47C224.47 232.077 224.396 231.77 224.248 231.503C224.1 231.233 223.876 231.021 223.575 230.869C223.275 230.712 222.894 230.634 222.433 230.634C221.997 230.634 221.637 230.699 221.354 230.831C221.07 230.962 220.858 231.139 220.719 231.364C220.583 231.588 220.516 231.844 220.516 232.132C220.516 232.326 220.556 232.504 220.636 232.665C220.721 232.822 220.85 232.968 221.023 233.103C221.201 233.238 221.425 233.363 221.696 233.478C221.971 233.592 222.299 233.702 222.68 233.808C223.205 233.956 223.658 234.121 224.039 234.303C224.419 234.485 224.733 234.69 224.978 234.918C225.228 235.143 225.412 235.399 225.53 235.687C225.653 235.97 225.714 236.292 225.714 236.651C225.714 237.028 225.638 237.369 225.486 237.673C225.333 237.978 225.116 238.238 224.832 238.454C224.549 238.67 224.208 238.837 223.81 238.956C223.417 239.07 222.976 239.127 222.49 239.127C222.062 239.127 221.641 239.068 221.227 238.949C220.816 238.831 220.442 238.653 220.103 238.416C219.769 238.179 219.5 237.887 219.297 237.54C219.098 237.189 218.999 236.783 218.999 236.321H220.217C220.217 236.639 220.279 236.912 220.401 237.14C220.524 237.364 220.691 237.551 220.903 237.699C221.119 237.847 221.362 237.957 221.633 238.029C221.908 238.097 222.194 238.13 222.49 238.13C222.917 238.13 223.279 238.071 223.575 237.953C223.871 237.834 224.096 237.665 224.248 237.445C224.405 237.225 224.483 236.965 224.483 236.664ZM233.001 239H231.072L231.084 238.003H233.001C233.662 238.003 234.212 237.866 234.652 237.591C235.092 237.312 235.422 236.922 235.642 236.423C235.866 235.919 235.979 235.331 235.979 234.658V234.093C235.979 233.564 235.915 233.095 235.788 232.684C235.661 232.269 235.475 231.92 235.229 231.637C234.984 231.349 234.684 231.131 234.328 230.983C233.977 230.835 233.573 230.761 233.116 230.761H231.034V229.758H233.116C233.721 229.758 234.273 229.859 234.772 230.062C235.272 230.261 235.701 230.551 236.061 230.932C236.425 231.309 236.704 231.766 236.899 232.303C237.094 232.836 237.191 233.437 237.191 234.106V234.658C237.191 235.327 237.094 235.93 236.899 236.467C236.704 237 236.423 237.455 236.055 237.832C235.691 238.209 235.251 238.499 234.734 238.702C234.222 238.901 233.645 239 233.001 239ZM231.726 229.758V239H230.5V229.758H231.726ZM244.903 238.003V239H240.009V238.003H244.903ZM240.257 229.758V239H239.032V229.758H240.257ZM244.256 233.731V234.728H240.009V233.731H244.256ZM244.84 229.758V230.761H240.009V229.758H244.84ZM249.842 230.577L246.782 239H245.532L249.055 229.758H249.861L249.842 230.577ZM252.406 239L249.34 230.577L249.321 229.758H250.127L253.663 239H252.406ZM252.248 235.579V236.582H247.055V235.579H252.248ZM260.506 238.003V239H255.885V238.003H260.506ZM256.126 229.758V239H254.901V229.758H256.126ZM266.834 236.664C266.834 236.448 266.801 236.258 266.733 236.093C266.669 235.924 266.555 235.771 266.39 235.636C266.229 235.5 266.005 235.371 265.717 235.249C265.434 235.126 265.074 235.001 264.638 234.874C264.181 234.739 263.769 234.588 263.4 234.423C263.032 234.254 262.717 234.062 262.455 233.846C262.192 233.63 261.991 233.382 261.852 233.103C261.712 232.824 261.642 232.504 261.642 232.145C261.642 231.785 261.716 231.453 261.864 231.148C262.012 230.843 262.224 230.579 262.499 230.354C262.778 230.126 263.111 229.948 263.496 229.821C263.881 229.694 264.31 229.631 264.784 229.631C265.478 229.631 266.066 229.764 266.549 230.031C267.035 230.293 267.406 230.638 267.66 231.065C267.914 231.489 268.041 231.941 268.041 232.424H266.822C266.822 232.077 266.748 231.77 266.6 231.503C266.451 231.233 266.227 231.021 265.927 230.869C265.626 230.712 265.245 230.634 264.784 230.634C264.348 230.634 263.989 230.699 263.705 230.831C263.422 230.962 263.21 231.139 263.07 231.364C262.935 231.588 262.867 231.844 262.867 232.132C262.867 232.326 262.907 232.504 262.988 232.665C263.072 232.822 263.201 232.968 263.375 233.103C263.553 233.238 263.777 233.363 264.048 233.478C264.323 233.592 264.651 233.702 265.032 233.808C265.556 233.956 266.009 234.121 266.39 234.303C266.771 234.485 267.084 234.69 267.33 234.918C267.579 235.143 267.763 235.399 267.882 235.687C268.005 235.97 268.066 236.292 268.066 236.651C268.066 237.028 267.99 237.369 267.837 237.673C267.685 237.978 267.467 238.238 267.184 238.454C266.9 238.67 266.559 238.837 266.162 238.956C265.768 239.07 265.328 239.127 264.841 239.127C264.414 239.127 263.993 239.068 263.578 238.949C263.168 238.831 262.793 238.653 262.455 238.416C262.12 238.179 261.852 237.887 261.648 237.54C261.45 237.189 261.35 236.783 261.35 236.321H262.569C262.569 236.639 262.63 236.912 262.753 237.14C262.876 237.364 263.043 237.551 263.254 237.699C263.47 237.847 263.714 237.957 263.984 238.029C264.259 238.097 264.545 238.13 264.841 238.13C265.269 238.13 265.631 238.071 265.927 237.953C266.223 237.834 266.447 237.665 266.6 237.445C266.756 237.225 266.834 236.965 266.834 236.664ZM122.489 249.087V249.671C122.489 250.365 122.402 250.987 122.229 251.537C122.055 252.087 121.805 252.555 121.479 252.94C121.154 253.325 120.762 253.619 120.305 253.822C119.852 254.025 119.345 254.127 118.782 254.127C118.236 254.127 117.734 254.025 117.277 253.822C116.825 253.619 116.431 253.325 116.097 252.94C115.767 252.555 115.511 252.087 115.329 251.537C115.147 250.987 115.056 250.365 115.056 249.671V249.087C115.056 248.393 115.145 247.773 115.322 247.227C115.504 246.677 115.76 246.209 116.09 245.824C116.42 245.435 116.812 245.139 117.265 244.936C117.722 244.732 118.223 244.631 118.769 244.631C119.332 244.631 119.84 244.732 120.292 244.936C120.75 245.139 121.141 245.435 121.467 245.824C121.797 246.209 122.049 246.677 122.222 247.227C122.4 247.773 122.489 248.393 122.489 249.087ZM121.276 249.671V249.074C121.276 248.524 121.219 248.037 121.105 247.614C120.995 247.191 120.832 246.836 120.616 246.548C120.4 246.26 120.136 246.042 119.823 245.894C119.514 245.746 119.163 245.672 118.769 245.672C118.388 245.672 118.043 245.746 117.734 245.894C117.43 246.042 117.167 246.26 116.947 246.548C116.731 246.836 116.564 247.191 116.446 247.614C116.327 248.037 116.268 248.524 116.268 249.074V249.671C116.268 250.225 116.327 250.716 116.446 251.144C116.564 251.567 116.734 251.924 116.954 252.216C117.178 252.504 117.442 252.722 117.747 252.87C118.056 253.018 118.401 253.092 118.782 253.092C119.18 253.092 119.533 253.018 119.842 252.87C120.151 252.722 120.411 252.504 120.623 252.216C120.838 251.924 121.001 251.567 121.111 251.144C121.221 250.716 121.276 250.225 121.276 249.671ZM131.433 244.758V254H130.201L125.548 246.872V254H124.323V244.758H125.548L130.22 251.905V244.758H131.433ZM139.208 253.003V254H134.587V253.003H139.208ZM134.829 244.758V254H133.604V244.758H134.829ZM141.925 244.758V254H140.7V244.758H141.925ZM151.263 244.758V254H150.031L145.378 246.872V254H144.153V244.758H145.378L150.05 251.905V244.758H151.263ZM159.305 253.003V254H154.411V253.003H159.305ZM154.659 244.758V254H153.434V244.758H154.659ZM158.658 248.731V249.728H154.411V248.731H158.658ZM159.242 244.758V245.761H154.411V244.758H159.242ZM171.163 249.087V249.671C171.163 250.365 171.076 250.987 170.902 251.537C170.729 252.087 170.479 252.555 170.153 252.94C169.827 253.325 169.436 253.619 168.979 253.822C168.526 254.025 168.018 254.127 167.456 254.127C166.91 254.127 166.408 254.025 165.951 253.822C165.498 253.619 165.105 253.325 164.771 252.94C164.44 252.555 164.184 252.087 164.002 251.537C163.82 250.987 163.729 250.365 163.729 249.671V249.087C163.729 248.393 163.818 247.773 163.996 247.227C164.178 246.677 164.434 246.209 164.764 245.824C165.094 245.435 165.486 245.139 165.938 244.936C166.396 244.732 166.897 244.631 167.443 244.631C168.006 244.631 168.514 244.732 168.966 244.936C169.423 245.139 169.815 245.435 170.141 245.824C170.471 246.209 170.722 246.677 170.896 247.227C171.074 247.773 171.163 248.393 171.163 249.087ZM169.95 249.671V249.074C169.95 248.524 169.893 248.037 169.779 247.614C169.669 247.191 169.506 246.836 169.29 246.548C169.074 246.26 168.81 246.042 168.497 245.894C168.188 245.746 167.836 245.672 167.443 245.672C167.062 245.672 166.717 245.746 166.408 245.894C166.104 246.042 165.841 246.26 165.621 246.548C165.405 246.836 165.238 247.191 165.12 247.614C165.001 248.037 164.942 248.524 164.942 249.074V249.671C164.942 250.225 165.001 250.716 165.12 251.144C165.238 251.567 165.407 251.924 165.627 252.216C165.852 252.504 166.116 252.722 166.421 252.87C166.73 253.018 167.075 253.092 167.456 253.092C167.853 253.092 168.207 253.018 168.516 252.87C168.825 252.722 169.085 252.504 169.296 252.216C169.512 251.924 169.675 251.567 169.785 251.144C169.895 250.716 169.95 250.225 169.95 249.671ZM172.997 244.758H176.057C176.751 244.758 177.337 244.864 177.815 245.075C178.297 245.287 178.663 245.6 178.913 246.015C179.167 246.425 179.294 246.931 179.294 247.532C179.294 247.955 179.207 248.342 179.034 248.693C178.864 249.04 178.619 249.337 178.297 249.582C177.98 249.823 177.599 250.003 177.155 250.122L176.812 250.255H173.937L173.924 249.258H176.095C176.535 249.258 176.901 249.182 177.193 249.03C177.485 248.873 177.705 248.664 177.853 248.401C178.001 248.139 178.075 247.849 178.075 247.532C178.075 247.176 178.005 246.865 177.866 246.599C177.726 246.332 177.506 246.127 177.206 245.983C176.909 245.835 176.526 245.761 176.057 245.761H174.222V254H172.997V244.758ZM178.399 254L176.152 249.811L177.428 249.804L179.707 253.924V254H178.399ZM191.348 249.087V249.671C191.348 250.365 191.261 250.987 191.088 251.537C190.914 252.087 190.665 252.555 190.339 252.94C190.013 253.325 189.622 253.619 189.165 253.822C188.712 254.025 188.204 254.127 187.641 254.127C187.095 254.127 186.594 254.025 186.137 253.822C185.684 253.619 185.29 253.325 184.956 252.94C184.626 252.555 184.37 252.087 184.188 251.537C184.006 250.987 183.915 250.365 183.915 249.671V249.087C183.915 248.393 184.004 247.773 184.182 247.227C184.364 246.677 184.62 246.209 184.95 245.824C185.28 245.435 185.671 245.139 186.124 244.936C186.581 244.732 187.083 244.631 187.628 244.631C188.191 244.631 188.699 244.732 189.152 244.936C189.609 245.139 190 245.435 190.326 245.824C190.656 246.209 190.908 246.677 191.082 247.227C191.259 247.773 191.348 248.393 191.348 249.087ZM190.136 249.671V249.074C190.136 248.524 190.079 248.037 189.964 247.614C189.854 247.191 189.691 246.836 189.476 246.548C189.26 246.26 188.995 246.042 188.682 245.894C188.373 245.746 188.022 245.672 187.628 245.672C187.248 245.672 186.903 245.746 186.594 245.894C186.289 246.042 186.027 246.26 185.807 246.548C185.591 246.836 185.424 247.191 185.305 247.614C185.187 248.037 185.127 248.524 185.127 249.074V249.671C185.127 250.225 185.187 250.716 185.305 251.144C185.424 251.567 185.593 251.924 185.813 252.216C186.037 252.504 186.302 252.722 186.606 252.87C186.915 253.018 187.26 253.092 187.641 253.092C188.039 253.092 188.392 253.018 188.701 252.87C189.01 252.722 189.27 252.504 189.482 252.216C189.698 251.924 189.861 251.567 189.971 251.144C190.081 250.716 190.136 250.225 190.136 249.671ZM194.408 244.758V254H193.183V244.758H194.408ZM198.28 248.916V249.918H194.141V248.916H198.28ZM198.908 244.758V245.761H194.141V244.758H198.908ZM201.593 244.758V254H200.368V244.758H201.593ZM205.465 248.916V249.918H201.327V248.916H205.465ZM206.094 244.758V245.761H201.327V244.758H206.094ZM213.159 253.003V254H208.538V253.003H213.159ZM208.779 244.758V254H207.554V244.758H208.779ZM215.875 244.758V254H214.65V244.758H215.875ZM225.213 244.758V254H223.981L219.329 246.872V254H218.104V244.758H219.329L224 251.905V244.758H225.213ZM233.255 253.003V254H228.361V253.003H233.255ZM228.609 244.758V254H227.384V244.758H228.609ZM232.608 248.731V249.728H228.361V248.731H232.608ZM233.192 244.758V245.761H228.361V244.758H233.192Z" fill="white"/>
<defs>
<filter id="filter0_d_686_3" x="0" y="0" width="340" height="340" filterUnits="userSpaceOnUse" color-interpolation-filters="sRGB">
<feFlood flood-opacity="0" result="BackgroundImageFix"/>
<feColorMatrix in="SourceAlpha" type="matrix" values="0 0 0 0 0 0 0 0 0 0 0 0 0 0 0 0 0 0 127 0" result="hardAlpha"/>
<feOffset dy="4"/>
<feGaussianBlur stdDeviation="2"/>
<feComposite in2="hardAlpha" operator="out"/>
<feColorMatrix type="matrix" values="0 0 0 0 0 0 0 0 0 0 0 0 0 0 0 0 0 0 0.25 0"/>
<feBlend mode="normal" in2="BackgroundImageFix" result="effect1_dropShadow_686_3"/>
<feBlend mode="normal" in="SourceGraphic" in2="effect1_dropShadow_686_3" result="shape"/>
</filter>
</defs>
</svg>
